<?xml version="1.0" encoding="UTF-8"?>
<!DOCTYPE svg PUBLIC "-//W3C//DTD SVG 1.1//EN" "http://www.w3.org/Graphics/SVG/1.1/DTD/svg11.dtd">
<!-- Creator: CorelDRAW 2019 (64-Bit) -->
<svg xmlns="http://www.w3.org/2000/svg" xml:space="preserve" width="36.5463mm" height="4.3408mm" version="1.1" style="shape-rendering:geometricPrecision; text-rendering:geometricPrecision; image-rendering:optimizeQuality; fill-rule:evenodd; clip-rule:evenodd"
viewBox="0 0 309.25 36.73"
 xmlns:xlink="http://www.w3.org/1999/xlink"
 xmlns:xodm="http://www.corel.com/coreldraw/odm/2003">
 <defs>
  <style type="text/css">
   <![CDATA[
    .str0 {stroke:#4D4D4D;stroke-width:1.95;stroke-miterlimit:22.9256}
    .fil4 {fill:none;fill-rule:nonzero}
    .fil3 {fill:#4D4D4D}
    .fil2 {fill:#77C5D5}
    .fil0 {fill:#919D9D}
    .fil1 {fill:#E03E52}
    .fil5 {fill:#4D4D4D;fill-rule:nonzero}
   ]]>
  </style>
 </defs>
 <g id="Layer_x0020_1">
  <metadata id="CorelCorpID_0Corel-Layer"/>
  <g id="_1589089500576">
   <g id="_1832381035632">
    <path class="fil0" d="M9.35 17.38c0.48,0.26 0.85,0.92 2.83,1.77 1.1,0.44 2.76,0.7 4.01,0.52 0.22,-0.44 0.4,-1.18 0.63,-1.69 0.74,-1.55 1.84,-3.05 3.31,-3.9 2.02,-1.21 5.11,-2.06 7.69,-1.1 0.22,-0.11 2.43,-2.32 2.61,-2.57l-0.07 -0.07c0,0 -0.04,0 -0.04,0 -1.44,-0.92 -4.49,-1.62 -6.03,-1.73 -3.49,-0.26 -6.58,0.66 -9.38,2.39 -0.88,0.52 -1.58,1.14 -2.24,1.73 -0.37,0.33 -0.59,0.63 -0.96,0.99 -0.74,0.85 -2.21,2.83 -2.35,3.68l0 0 0 0z"/>
    <path class="fil1" d="M18.33 20.14c-1.58,0.22 -2.24,0.63 -4.27,0.29 -1.36,-0.18 -2.54,-0.7 -3.5,-1.32 -1.47,-0.96 -3.61,-3.2 -3.97,-5.67l-3.57 -0.96c-0.11,2.65 1.21,5.92 2.32,7.69 2.72,4.3 7.47,7.14 12.84,7.17 0.29,0 0.99,0.11 1.14,-0.11 0.29,-0.29 0.4,-2.65 0.33,-3.38 -0.18,-1.66 -0.7,-2.54 -1.32,-3.72l0 0 0 0z"/>
    <path class="fil2" d="M17.63 18.22c0.88,0.96 1.4,1.51 2.02,2.72 1.25,2.46 1.14,5.37 0,7.87 -0.26,0.55 -0.55,1.07 -0.85,1.55 -0.44,0.59 -0.63,0.81 -1.18,1.25l0.92 3.53c0.52,-0.18 1.91,-1.29 2.24,-1.62 0.66,-0.7 1.29,-1.25 1.88,-2.06 1.1,-1.58 2.02,-3.09 2.61,-5.3 1.07,-3.94 0.55,-7.8 -1.29,-11.33 -0.26,-0.48 -0.55,-0.85 -0.74,-1.25 -0.96,0.04 -2.69,1.14 -3.42,1.73 -0.66,0.51 -2.06,2.13 -2.21,2.91l0 0 0 0z"/>
    <path class="fil0" d="M17.19 0.05c-1.84,0.37 -2.87,1.91 -2.61,3.57 0.29,1.55 1.69,2.83 3.61,2.54 1.51,-0.26 2.83,-1.73 2.5,-3.57 -0.26,-1.47 -1.69,-2.87 -3.5,-2.54l0 0z"/>
    <path class="fil1" d="M2.66 24.18c-1.55,0.26 -2.83,1.66 -2.54,3.49 0.22,1.55 1.69,2.87 3.57,2.54 1.51,-0.26 2.8,-1.69 2.5,-3.49 -0.26,-1.51 -1.69,-2.87 -3.53,-2.54l0 0z"/>
    <path class="fil2" d="M30.84 24.66c-1.55,0.22 -2.87,1.62 -2.61,3.49 0.18,1.55 1.62,2.83 3.42,2.61 1.58,-0.22 2.87,-1.66 2.65,-3.49 -0.22,-1.51 -1.66,-2.83 -3.46,-2.61l0 0z"/>
    <path class="fil1" d="M0.63 24.07l0.55 -0.37c-0.11,-0.55 -0.26,-1.14 -0.33,-1.77 -0.88,-6.18 1.88,-12.4 6.92,-15.82 1.47,-0.99 3.75,-2.17 5.89,-2.5l-0.04 -0.7c-1.69,0.15 -4.75,1.62 -6.18,2.61 -4.78,3.35 -7.62,8.68 -7.43,14.72 0.04,0.77 0.29,3.38 0.63,3.83l0 0 0 0z"/>
    <path class="fil2" d="M4.39 31.03c0.29,0.51 1.77,1.77 2.32,2.21 5.89,4.56 14.42,4.67 20.42,0.26 0.55,-0.41 2.21,-1.73 2.39,-2.13l-0.52 -0.29c-0.29,0.15 -0.77,0.7 -1.1,0.99 -3.2,2.61 -6.47,4.08 -11,4.05 -4.27,-0.04 -8.46,-1.84 -11.33,-4.75 -0.18,-0.18 -0.37,-0.4 -0.55,-0.55l-0.63 0.22 0 0 0 0z"/>
    <path class="fil0" d="M21.57 3.88c2.87,0.55 6.25,2.98 8.09,5.15l1.32 1.8c1.07,1.62 1.91,3.68 2.32,5.92 0.48,2.69 0.29,4.78 -0.33,7.32l0.55 0.29c0.59,-2.91 0.96,-4.49 0.4,-7.69 -0.4,-2.35 -1.32,-4.56 -2.43,-6.22 -1.73,-2.69 -3.94,-4.71 -6.77,-6.11 -0.44,-0.26 -2.65,-1.25 -3.09,-1.14l-0.07 0.66 0 0 0 0z"/>
    <path class="fil3" d="M149.04 7.11c-8.9,1.77 -10.52,15.45 -3.97,20.6 1.77,1.4 2.98,2.06 6.03,2.06 3.53,0 22.59,0.22 24.43,-0.11 7.39,-1.36 11.66,-13.39 4.01,-20.6 -1.47,-1.36 -3.31,-2.1 -6.07,-2.06 -3.46,0 -22.7,-0.22 -24.43,0.11zm1.18 5.04c-2.98,0.66 -4.64,3.27 -4.3,6.95 0.29,3.42 2.21,5.59 5.81,5.63 3.13,0.04 21.01,0.22 22.66,-0.15 2.87,-0.63 4.6,-3.35 4.3,-6.92 -0.29,-3.46 -2.17,-5.59 -5.85,-5.67 -3.02,-0.07 -21.01,-0.22 -22.63,0.15zm-49.04 -5.04c-8.87,1.77 -10.93,15.71 -3.38,21.23 2.13,1.55 3.9,1.43 6.99,1.43 3.57,0 23.66,0.18 25.46,-0.04 5.78,-0.66 6.59,-7.51 4.71,-10.74 -0.88,-1.58 -2.72,-3.05 -5.3,-3.13 -2.8,-0.11 -5.74,0 -8.54,0 -2.8,0 -5.63,0 -8.42,0 -1.88,0 -6.11,-0.7 -5.74,2.83 0.29,2.8 3.72,2.17 6.36,2.17 1.95,0 16,-0.18 16.74,0.26 0.81,0.48 1.07,1.99 0.44,2.94 -0.66,0.96 -2.17,0.66 -3.64,0.66 -2.8,0 -23.25,0.29 -25.02,-0.26 -4.49,-1.4 -4.93,-8.46 -1.73,-11.22 1.88,-1.66 4.45,-1.25 7.32,-1.25l25.35 0c3.2,0 3.86,-3.16 1.91,-4.56 -1.1,-0.85 -6.22,-0.44 -7.98,-0.44 -3.57,-0.04 -23.77,-0.22 -25.53,0.11l0 0zm-36.35 4.89c0.15,3.27 0.04,6.84 0.04,10.12 0,2.91 -0.88,7.58 2.46,7.65 3.46,0.07 2.57,-4.56 2.57,-7.5 0,-3.31 -0.11,-6.95 0.04,-10.26 1.69,-0.04 15.27,0.11 16.11,-0.11 1.21,-0.29 2.39,-1.77 1.62,-3.46 -0.66,-1.47 -1.91,-1.43 -3.86,-1.43 -1.84,0 -3.64,0 -5.45,0l-27.04 0c-1.99,0 -3.42,-0.18 -4.19,1.32 -0.85,1.69 0.33,3.16 1.55,3.57 0.77,0.22 14.16,0.07 16.15,0.11z"/>
   </g>
   <line class="fil4 str0" x1="195.62" y1="5.94" x2="195.62" y2= "30.03" />
   <path class="fil5" d="M205.54 26.67l0 -12.28 7.75 0 0 1.74 -5.76 0 0 3.48 4.68 0 0 1.72 -4.68 0 0 3.59 5.76 0 0 1.76 -7.75 0zm9.29 -3.95l0 -1.78 5.36 0 0 1.78 -5.36 0zm6.74 3.95l3.03 -12.28 3.96 0 3.05 12.28 -2.01 0 -0.66 -2.64 -4.72 0 -0.66 2.64 -1.99 0zm4.57 -10.62l-1.52 6.22 3.93 0 -1.51 -6.22 -0.9 0zm6.99 10.62l0 -8.97 1.94 0 0 1.08c1.02,-0.66 2.03,-1.08 3.05,-1.27l0 1.95c-1.03,0.2 -1.91,0.47 -2.64,0.79l-0.39 0.16 0 6.26 -1.95 0zm6.76 1.38l1.9 0 -0.95 4 -1.74 0 0.79 -4zm5.94 -8.5c-1.41,-0.19 -2.43,-0.29 -3.07,-0.29 -0.63,0 -1.07,0.07 -1.32,0.22 -0.24,0.15 -0.37,0.39 -0.37,0.71 0,0.32 0.13,0.55 0.4,0.68 0.27,0.13 0.9,0.28 1.9,0.46 1,0.17 1.71,0.45 2.13,0.82 0.42,0.37 0.63,1.03 0.63,1.97 0,0.95 -0.3,1.64 -0.91,2.08 -0.6,0.44 -1.49,0.66 -2.65,0.66 -0.73,0 -1.65,-0.1 -2.76,-0.3l-0.56 -0.09 0.07 -1.63c1.43,0.19 2.47,0.29 3.1,0.29 0.63,0 1.09,-0.08 1.35,-0.23 0.27,-0.16 0.4,-0.41 0.4,-0.77 0,-0.36 -0.13,-0.61 -0.39,-0.74 -0.26,-0.14 -0.87,-0.29 -1.85,-0.45 -0.97,-0.16 -1.69,-0.42 -2.14,-0.76 -0.45,-0.35 -0.68,-0.98 -0.68,-1.9 0,-0.92 0.31,-1.61 0.94,-2.06 0.63,-0.45 1.43,-0.68 2.41,-0.68 0.76,0 1.7,0.1 2.82,0.29l0.56 0.11 -0.04 1.63zm2.19 7.12l0 -8.97 1.95 0 0 8.97 -1.95 0zm0 -10.49l0 -2.06 1.95 0 0 2.06 -1.95 0zm3.48 1.52l2.04 0 1.72 7.3 0.57 0 1.79 -7.3 1.99 0 -2.33 8.97 -3.48 0 -2.31 -8.97zm18.33 5.15l-2.51 0 0 3.82 -1.99 0 0 -12.28 4.5 0c2.79,0 4.18,1.38 4.18,4.13 0,1.41 -0.35,2.49 -1.05,3.23 -0.7,0.74 -1.74,1.11 -3.13,1.11zm-2.51 -1.72l2.49 0c1.43,0 2.15,-0.87 2.15,-2.62 0,-0.84 -0.17,-1.45 -0.52,-1.83 -0.35,-0.38 -0.89,-0.57 -1.63,-0.57l-2.49 0 0 5.02zm8.87 -2.46c0.62,-0.78 1.64,-1.17 3.08,-1.17 1.44,0 2.46,0.39 3.08,1.17 0.62,0.78 0.92,1.94 0.92,3.5 0,1.55 -0.3,2.73 -0.9,3.52 -0.6,0.79 -1.63,1.18 -3.1,1.18 -1.47,0 -2.5,-0.39 -3.1,-1.18 -0.6,-0.79 -0.9,-1.96 -0.9,-3.52 0,-1.55 0.31,-2.72 0.92,-3.5zm1.46 5.83c0.28,0.48 0.81,0.72 1.61,0.72 0.8,0 1.34,-0.24 1.61,-0.72 0.28,-0.48 0.41,-1.26 0.41,-2.35 0,-1.09 -0.15,-1.86 -0.44,-2.31 -0.29,-0.45 -0.82,-0.68 -1.59,-0.68 -0.76,0 -1.29,0.23 -1.59,0.68 -0.29,0.45 -0.44,1.23 -0.44,2.31 0,1.09 0.14,1.87 0.41,2.35zm7.55 2.17l0 -8.97 1.94 0 0 1.08c1.02,-0.66 2.03,-1.08 3.05,-1.27l0 1.95c-1.03,0.2 -1.91,0.47 -2.64,0.79l-0.39 0.16 0 6.26 -1.95 0zm11.3 -7.3l-2.48 0 0 3.95c0,0.73 0.05,1.21 0.16,1.45 0.11,0.24 0.38,0.36 0.83,0.36l1.47 -0.05 0.09 1.56c-0.8,0.15 -1.41,0.23 -1.83,0.23 -1.02,0 -1.71,-0.23 -2.09,-0.7 -0.38,-0.47 -0.57,-1.35 -0.57,-2.64l0 -4.16 -1.15 0 0 -1.67 1.15 0 0 -2.6 1.94 0 0 2.6 2.48 0 0 1.67zm8.23 1.09l0 4.09c0.01,0.26 0.08,0.46 0.21,0.58 0.13,0.13 0.32,0.21 0.58,0.24l-0.05 1.49c-1.03,0 -1.82,-0.22 -2.39,-0.66 -0.96,0.44 -1.92,0.66 -2.89,0.66 -1.78,0 -2.67,-0.95 -2.67,-2.85 0,-0.91 0.24,-1.57 0.73,-1.97 0.48,-0.41 1.23,-0.65 2.23,-0.74l2.31 -0.2 0 -0.65c0,-0.48 -0.1,-0.81 -0.31,-1 -0.21,-0.19 -0.52,-0.29 -0.92,-0.29 -0.76,0 -1.72,0.05 -2.87,0.14l-0.57 0.04 -0.07 -1.38c1.3,-0.31 2.5,-0.47 3.6,-0.47 1.09,0 1.88,0.24 2.37,0.71 0.48,0.47 0.73,1.22 0.73,2.25zm-4.02 2.22c-0.83,0.07 -1.24,0.52 -1.24,1.34 0,0.83 0.36,1.24 1.09,1.24 0.6,0 1.23,-0.1 1.9,-0.29l0.32 -0.11 0 -2.39 -2.08 0.2zm6.58 3.98l0 -12.7 1.95 0 0 12.7 -1.95 0z"/>
  </g>
 </g>
</svg>
