<?xml version="1.0" encoding="UTF-8"?>
<!DOCTYPE svg PUBLIC "-//W3C//DTD SVG 1.1//EN" "http://www.w3.org/Graphics/SVG/1.1/DTD/svg11.dtd">
<!-- Creator: CorelDRAW 2019 (64-Bit) -->
<svg xmlns="http://www.w3.org/2000/svg" xml:space="preserve" width="11.43mm" height="11.43mm" version="1.1" style="shape-rendering:geometricPrecision; text-rendering:geometricPrecision; image-rendering:optimizeQuality; fill-rule:evenodd; clip-rule:evenodd"
viewBox="0 0 29.93 29.93"
 xmlns:xlink="http://www.w3.org/1999/xlink"
 xmlns:xodm="http://www.corel.com/coreldraw/odm/2003">
 <defs>
  <style type="text/css">
   <![CDATA[
    .fil1 {fill:none}
    .fil0 {fill:#4D4D4D}
   ]]>
  </style>
 </defs>
 <g id="Layer_x0020_1">
  <metadata id="CorelCorpID_0Corel-Layer"/>
  <path class="fil0" d="M9.41 12.45c-0.32,-0.01 -0.89,-0.1 -0.88,0.3 0,0.41 0.56,0.3 0.88,0.3l-0 1.74c-0.32,0 -0.88,-0.11 -0.88,0.3 0,0.41 0.56,0.3 0.88,0.3l-0 1.8c-0.31,-0 -0.88,-0.1 -0.88,0.27 -0,0.38 0.57,0.27 0.88,0.27l0 1.8c-0.32,-0.01 -0.89,-0.1 -0.88,0.3 0,0.41 0.56,0.3 0.88,0.3l-0 1.74c-0.32,0 -0.88,-0.11 -0.88,0.3 0,0.4 0.56,0.3 0.88,0.3 0,0.76 0.01,1.23 0.51,1.58 0.53,0.37 1.14,0.27 1.86,0.27 0.47,-0 7.09,0.03 7.39,-0.02 0.54,-0.09 0.98,-0.53 1.07,-1.06 0.04,-0.28 0.02,-0.75 0.02,-1.05 0,-0.66 0.04,-1.48 -0.01,-2.12 -0.19,0.09 -0.39,0.3 -0.59,0.41 -0.02,0.49 0.03,2.46 -0.02,2.71 -0.09,0.42 -0.45,0.54 -0.83,0.53l-6.84 0 0 -12.53 5.31 0c0.44,-0 1.4,-0.05 1.79,0.01 0.68,0.11 0.58,0.82 0.58,1.19 -0,0.7 -0.03,5 0.01,5.33 0.11,-0.06 0.25,-0.17 0.36,-0.25 0.21,-0.14 0.24,-0.08 0.23,-0.4l-0 -3.84c-0,-0.93 0.2,-2.05 -0.69,-2.49 -0.49,-0.24 -1.17,-0.15 -1.78,-0.15 -1.7,-0 -3.4,-0 -5.1,0 -0.57,0 -2.02,-0.08 -2.46,0.1 -0.83,0.33 -0.82,1.07 -0.81,1.75zm0.6 0c0.2,0 0.25,0.03 0.38,-0.06 0.71,-0.52 1.16,0.8 0.33,0.84 -0.14,0.01 -0.23,-0.04 -0.32,-0.11 -0.14,-0.11 -0.17,-0.07 -0.39,-0.07l0 1.74c0.19,0 0.25,0.03 0.38,-0.06 0.4,-0.28 0.79,0.04 0.78,0.39 -0.01,0.25 -0.21,0.44 -0.45,0.45 -0.14,0.01 -0.22,-0.03 -0.32,-0.11 -0.14,-0.11 -0.17,-0.07 -0.39,-0.07l0 1.8c0.19,0 0.26,0.04 0.37,-0.06 0.38,-0.31 0.78,0 0.78,0.33 0,0.27 -0.2,0.45 -0.45,0.46 -0.28,0.01 -0.28,-0.17 -0.46,-0.19 -0.06,-0.01 -0.18,0 -0.24,0l-0 1.8c0.19,0 0.26,0.03 0.37,-0.06 0.38,-0.31 0.77,-0 0.78,0.33 0.01,0.37 -0.4,0.65 -0.77,0.4 -0.15,-0.1 -0.17,-0.07 -0.39,-0.07l0 1.74c0.19,0 0.26,0.03 0.37,-0.06 0.38,-0.3 0.78,0.01 0.78,0.33 0.01,0.39 -0.42,0.65 -0.77,0.4 -0.15,-0.11 -0.17,-0.07 -0.39,-0.07 0,0.55 -0.06,0.91 0.33,1.14 0.28,0.17 0.98,0.11 1.36,0.11l0 -12.53c-0.4,0 -1.06,-0.07 -1.36,0.11 -0.39,0.23 -0.33,0.59 -0.33,1.14zm5.34 8.69c0.39,-0.04 0.25,0.02 0.41,0.19 0.09,0.1 0.24,0.11 0.36,0.27 0.11,0.15 0.07,0.36 0.16,0.47 0.16,0.19 0.1,0.21 0.03,0.44l4.84 -3.41c0.06,-0.05 0.15,-0.1 0.19,-0.13 0.11,-0.09 0.06,-0.4 0.02,-0.54 -0.02,-0.08 -0.19,-0.29 -0.25,-0.38 -0.06,-0.08 -0.19,-0.29 -0.26,-0.34 -0.08,-0.05 -0.36,-0.18 -0.45,-0.15 -0.06,0.02 -0.63,0.44 -0.72,0.51 -0.85,0.6 -2.07,1.43 -2.89,2.04 -0.34,0.26 -1.2,0.82 -1.44,1.03zm-0.37 -7.79c-0.3,0.12 -0.32,0.58 0.21,0.58 0.52,0 3.37,0.02 3.49,-0.02 0.22,-0.09 0.34,-0.57 -0.22,-0.58 -0.52,-0 -3.36,-0.02 -3.48,0.02zm0 2.23c-0.29,0.11 -0.33,0.58 0.21,0.58 0.52,0 3.38,0.02 3.49,-0.02 0.23,-0.09 0.33,-0.58 -0.22,-0.58 -0.52,-0 -3.36,-0.02 -3.48,0.02zm0.01 2.17c-0.31,0.09 -0.27,0.53 0.04,0.58 0.23,0.04 0.79,0.01 1.06,0.01 0.37,-0 1.85,0.05 2.09,-0.01 0.3,-0.08 0.29,-0.54 -0.05,-0.58 -0.24,-0.03 -3.08,-0.01 -3.14,0.01zm-1.52 -1.93c-0.13,-0.09 -0.3,-0.34 -0.45,-0.39 -0.22,-0.06 -0.42,0.21 -0.23,0.43 0.71,0.83 0.72,0.69 1.36,0.01 0.09,-0.1 0.37,-0.29 0.27,-0.5 -0.14,-0.28 -0.38,-0.12 -0.52,0.03 -0.14,0.14 -0.28,0.3 -0.42,0.42zm0 -2.21c-0.11,-0.08 -0.3,-0.34 -0.43,-0.38 -0.23,-0.08 -0.44,0.19 -0.27,0.4 0.11,0.13 0.29,0.32 0.41,0.43 0.36,0.33 0.5,0.08 0.95,-0.41 0.09,-0.1 0.37,-0.29 0.28,-0.5 -0.04,-0.09 -0.14,-0.16 -0.26,-0.15 -0.16,0.02 -0.53,0.45 -0.68,0.6zm0 4.42c-0.12,-0.08 -0.31,-0.35 -0.44,-0.38 -0.27,-0.07 -0.43,0.22 -0.24,0.44 0.14,0.15 0.27,0.26 0.42,0.42 0.18,0.2 0.36,0.16 0.54,-0.01l0.4 -0.42c0.09,-0.1 0.37,-0.29 0.27,-0.5 -0.23,-0.47 -0.69,0.25 -0.94,0.45zm2.15 4.63c-0.04,-0.4 -0.36,-0.82 -0.65,-0.91 -0.08,0.09 -0.57,0.92 -0.56,0.99 0.02,0.23 0.38,0.09 0.55,0.06 0.22,-0.04 0.46,-0.09 0.65,-0.14z"/>
  <rect class="fil1" width="29.93" height="29.93"/>
 </g>
</svg>
